:FULLY-SPECIFIED
:FORCE-ALL-JOINTS-BE-3DOF
:DEGREES
324
root 9.80389 16.874 8.87526 6.92318 9.38441 3.45623
lfemur 5.97012 6.00606 -24.29
ltibia 31.4857 0 0
lfoot -10.5148 4.91889 0
ltoes 0.391669 0 0
rfemur -43.6545 13.049 8.38605
rtibia 33.8147 0 0
rfoot -27.904 -13.1031 0
rtoes -17.4604 0 0
lowerback -6.75527 -4.7523 -5.42166
upperback -1.16668 -5.90064 2.01874
thorax 3.25251 -3.03953 4.44649
lowerneck -19.2824 -5.19581 -13.0465
upperneck 21.1838 -6.64022 13.1416
head 10.939 -2.58708 5.98491
lclavicle -2.5178e-14 -9.51222e-15 0
lhumerus -19.598 -33.2661 94.6706
lradius 33.2051 0 0
lwrist 15.0805 0 0
lhand -13.0455 -19.9057 0
lfingers 7.12502 0 0
lthumb 13.0495 9.66711 0
rclavicle -2.5178e-14 -9.51222e-15 0
rhumerus -48.4588 8.97648 -83.4384
rradius 36.9291 0 0
rwrist -21.5441 0 0
rhand -29.1109 -28.1076 0
rfingers 7.12502 0 0
rthumb -2.45875 -58.0709 0
325
root 9.78493 16.8829 9.04122 6.8999 9.42238 3.30584
lfemur 5.29034 6.13517 -23.9874
ltibia 33.0845 0 0
lfoot -10.3124 5.1517 0
ltoes 0.27728 0 0
rfemur -43.2619 12.7411 9.00818
rtibia 34.0686 0 0
rfoot -27.5234 -12.6363 0
rtoes -17.2465 0 0
lowerback -6.70096 -4.69501 -5.29448
upperback -1.18182 -5.83542 2.0354
thorax 3.18972 -3.00419 4.40282
lowerneck -19.3051 -5.22835 -13.06
upperneck 21.1544 -6.68876 13.1875
head 10.9429 -2.60426 5.9958
lclavicle -2.35831e-14 -9.48179e-15 0
lhumerus -20.1893 -33.0086 94.905
lradius 32.9584 0 0
lwrist 14.8972 0 0
lhand -13.1152 -19.8897 0
lfingers 7.12502 0 0
lthumb 12.9823 9.68763 0
rclavicle -2.35831e-14 -9.48179e-15 0
rhumerus -48.2835 9.15887 -83.4895
rradius 37.0586 0 0
rwrist -21.6516 0 0
rhand -29.1565 -28.1216 0
rfingers 7.12502 0 0
rthumb -2.50282 -58.0843 0
326
root 9.76559 16.8919 9.20765 6.87703 9.45321 3.15136
lfemur 4.59367 6.25885 -23.6824
ltibia 34.6517 0 0
lfoot -10.1149 5.38279 0
ltoes 0.157393 0 0
rfemur -42.8384 12.4343 9.6342
rtibia 34.2983 0 0
rfoot -27.1367 -12.1658 0
rtoes -17.0352 0 0
lowerback -6.64879 -4.63392 -5.16433
upperback -1.19606 -5.76552 2.0529
thorax 3.12893 -2.9665 4.35888
lowerneck -19.3274 -5.26092 -13.0733
upperneck 21.1255 -6.73726 13.2325
head 10.9468 -2.62153 6.00634
lclavicle -2.19665e-14 -9.41473e-15 0
lhumerus -20.7906 -32.7414 95.1362
lradius 32.712 0 0
lwrist 14.712 0 0
lhand -13.1815 -19.8771 0
lfingers 7.12502 0 0
lthumb 12.9184 9.70448 0
rclavicle -2.19665e-14 -9.41473e-15 0
rhumerus -48.0998 9.34125 -83.5413
rradius 37.1868 0 0
rwrist -21.7547 0 0
rhand -29.2016 -28.1319 0
rfingers 7.12502 0 0
rthumb -2.54636 -58.094 0
327
root 9.74592 16.901 9.37449 6.85459 9.47713 2.99307
lfemur 3.88137 6.37715 -23.3756
ltibia 36.1867 0 0
lfoot -9.92236 5.61199 0
ltoes 0.032311 0 0
rfemur -42.3856 12.1286 10.2633
rtibia 34.5043 0 0
rfoot -26.7444 -11.692 0
rtoes -16.8267 0 0
lowerback -6.59875 -4.56922 -5.03143
upperback -1.2094 -5.69116 2.07119
thorax 3.07012 -2.92658 4.31473
lowerneck -19.3494 -5.29351 -13.0865
upperneck 21.0972 -6.78566 13.2765
head 10.9509 -2.63885 6.01655
lclavicle -2.03306e-14 -9.31234e-15 0
lhumerus -21.4011 -32.4649 95.3641
lradius 32.4663 0 0
lwrist 14.5251 0 0
lhand -13.2445 -19.8679 0
lfingers 7.12502 0 0
lthumb 12.8577 9.71777 0
rclavicle -2.03306e-14 -9.31234e-15 0
rhumerus -47.9082 9.52345 -83.5937
rradius 37.3135 0 0
rwrist -21.8533 0 0
rhand -29.2461 -28.1385 0
rfingers 7.12502 0 0
rthumb -2.58935 -58.1001 0
328
root 9.72598 16.9101 9.54167 6.83259 9.49433 2.83126
lfemur 3.15472 6.49013 -23.0672
ltibia 37.689 0 0
lfoot -9.73478 5.83912 0
ltoes -0.0976592 0 0
rfemur -41.9048 11.8245 10.8948
rtibia 34.6873 0 0
rfoot -26.3471 -11.2157 0
rtoes -16.6211 0 0
lowerback -6.55081 -4.5011 -4.89601
upperback -1.22188 -5.61258 2.09022
thorax 3.01331 -2.88453 4.27042
lowerneck -19.3711 -5.32606 -13.0996
upperneck 21.0696 -6.83391 13.3196
head 10.955 -2.65621 6.02641
lclavicle -1.86777e-14 -9.1759e-15 0
lhumerus -22.0196 -32.1798 95.5885
lradius 32.2214 0 0
lwrist 14.3368 0 0
lhand -13.3042 -19.8619 0
lfingers 7.12502 0 0
lthumb 12.8002 9.72761 0
rclavicle -1.86777e-14 -9.1759e-15 0
rhumerus -47.7092 9.70528 -83.6466
rradius 37.4388 0 0
rwrist -21.9476 0 0
rhand -29.29 -28.1416 0
rfingers 7.12502 0 0
rthumb -2.63177 -58.1027 0
329
root 9.70582 16.9191 9.70914 6.81104 9.50502 2.66624
lfemur 2.415 6.59784 -22.7576
ltibia 39.158 0 0
lfoot -9.5522 6.06399 0
ltoes -0.232213 0 0
rfemur -41.3976 11.5222 11.5279
rtibia 34.8477 0 0
rfoot -25.9454 -10.7375 0
rtoes -16.4186 0 0
lowerback -6.50497 -4.42975 -4.75832
upperback -1.2335 -5.53001 2.10995
thorax 2.95849 -2.84048 4.22601
lowerneck -19.3924 -5.35856 -13.1126
upperneck 21.0426 -6.88197 13.3617
head 10.9593 -2.67359 6.03593
lclavicle -1.70101e-14 -9.0067e-15 0
lhumerus -22.6453 -31.8867 95.8093
lradius 31.9776 0 0
lwrist 14.1474 0 0
lhand -13.3606 -19.8591 0
lfingers 7.12502 0 0
lthumb 12.7458 9.73409 0
rclavicle -1.70101e-14 -9.0067e-15 0
rhumerus -47.5033 9.88656 -83.7
rradius 37.5625 0 0
rwrist -22.0375 0 0
rhand -29.3333 -28.1413 0
rfingers 7.12502 0 0
rthumb -2.67357 -58.1019 0
330
root 9.6855 16.9282 9.87684 6.78994 9.50941 2.4983
lfemur 1.66348 6.70033 -22.4473
ltibia 40.5931 0 0
lfoot -9.37467 6.28644 0
ltoes -0.371044 0 0
rfemur -40.8653 11.2219 12.1618
rtibia 34.9862 0 0
rfoot -25.54 -10.2579 0
rtoes -16.2191 0 0
lowerback -6.4612 -4.35535 -4.61857
upperback -1.24428 -5.44365 2.13033
thorax 2.90564 -2.79455 4.18155
lowerneck -19.4133 -5.39095 -13.1253
upperneck 21.0162 -6.92978 13.4029
head 10.9635 -2.69096 6.04511
lclavicle -1.53304e-14 -8.80602e-15 0
lhumerus -23.2773 -31.5862 96.0264
lradius 31.7352 0 0
lwrist 13.957 0 0
lhand -13.4138 -19.8592 0
lfingers 7.12502 0 0
lthumb 12.6944 9.73732 0
rclavicle -1.53304e-14 -8.80602e-15 0
rhumerus -47.2908 10.0671 -83.7538
rradius 37.6846 0 0
rwrist -22.1232 0 0
rhand -29.376 -28.1377 0
rfingers 7.12502 0 0
rthumb -2.71474 -58.0978 0
331
root 9.66506 16.9373 10.0447 6.76931 9.5077 2.32772
lfemur 0.901433 6.79766 -22.1366
ltibia 41.9939 0 0
lfoot -9.20222 6.50627 0
ltoes -0.513847 0 0
rfemur -40.3095 10.924 12.7957
rtibia 35.1032 0 0
rfoot -25.1313 -9.77759 0
rtoes -16.023 0 0
lowerback -6.41948 -4.27811 -4.47701
upperback -1.25423 -5.35376 2.15132
thorax 2.85477 -2.74684 4.13709
lowerneck -19.4338 -5.42322 -13.1379
upperneck 20.9905 -6.97731 13.443
head 10.9679 -2.70831 6.05395
lclavicle -1.36408e-14 -8.57514e-15 0
lhumerus -23.9145 -31.2789 96.2397
lradius 31.4944 0 0
lwrist 13.766 0 0
lhand -13.4639 -19.8623 0
lfingers 7.12502 0 0
lthumb 12.6462 9.7374 0
rclavicle -1.36408e-14 -8.57514e-15 0
rhumerus -47.0724 10.2467 -83.8079
rradius 37.8049 0 0
rwrist -22.2046 0 0
rhand -29.4179 -28.1309 0
rfingers 7.12502 0 0
rthumb -2.75526 -58.0906 0
332
root 9.64457 16.9463 10.2127 6.74915 9.50009 2.15481
lfemur 0.130134 6.88988 -21.826
ltibia 43.3597 0 0
lfoot -9.03489 6.72332 0
ltoes -0.660318 0 0
rfemur -39.7315 10.6287 13.4289
rtibia 35.1995 0 0
rfoot -24.7201 -9.29714 0
rtoes -15.8303 0 0
lowerback -6.37979 -4.19819 -4.33386
upperback -1.26337 -5.26054 2.17286
thorax 2.80587 -2.69749 4.09268
lowerneck -19.4539 -5.45532 -13.1504
upperneck 20.9655 -7.02449 13.4822
head 10.9723 -2.72562 6.06245
lclavicle -1.19437e-14 -8.31536e-15 0
lhumerus -24.5561 -30.9653 96.449
lradius 31.2553 0 0
lwrist 13.5746 0 0
lhand -13.5109 -19.8683 0
lfingers 7.12502 0 0
lthumb 12.6009 9.73445 0
rclavicle -1.19437e-14 -8.31536e-15 0
rhumerus -46.8484 10.4252 -83.8622
rradius 37.9234 0 0
rwrist -22.2819 0 0
rhand -29.4592 -28.1211 0
rfingers 7.12502 0 0
rthumb -2.79508 -58.0802 0
333
root 9.62408 16.9552 10.3807 6.72948 9.4868 1.97985
lfemur -0.649144 6.97705 -21.5157
ltibia 44.6901 0 0
lfoot -8.87273 6.93739 0
ltoes -0.81015 0 0
rfemur -39.1329 10.3364 14.0606
rtibia 35.2755 0 0
rfoot -24.3069 -8.81717 0
rtoes -15.6411 0 0
lowerback -6.34213 -4.11581 -4.18935
upperback -1.27171 -5.16423 2.19493
thorax 2.75894 -2.64659 4.04839
lowerneck -19.4736 -5.48722 -13.1626
upperneck 20.9411 -7.0713 13.5203
head 10.9767 -2.74286 6.07062
lclavicle -1.02415e-14 -8.02795e-15 0
lhumerus -25.2011 -30.6462 96.6542
lradius 31.0183 0 0
lwrist 13.383 0 0
lhand -13.5548 -19.8769 0
lfingers 7.12502 0 0
lthumb 12.5586 9.72856 0
rclavicle -1.02415e-14 -8.02795e-15 0
rhumerus -46.6193 10.6023 -83.9167
rradius 38.04 0 0
rwrist -22.355 0 0
rhand -29.4996 -28.1083 0
rfingers 7.12502 0 0
rthumb -2.83419 -58.067 0
334
root 9.60364 16.964 10.5486 6.7103 9.46802 1.80315
lfemur -1.43513 7.05922 -21.2063
ltibia 45.9844 0 0
lfoot -8.71578 7.14832 0
ltoes -0.963039 0 0
rfemur -38.5152 10.0473 14.69
rtibia 35.3318 0 0
rfoot -23.8924 -8.33827 0
rtoes -15.4556 0 0
lowerback -6.30647 -4.03113 -4.04373
upperback -1.27927 -5.06506 2.21746
thorax 2.71398 -2.59428 4.00426
lowerneck -19.4929 -5.51889 -13.1747
upperneck 20.9174 -7.11766 13.5573
head 10.9812 -2.76002 6.07844
lclavicle -8.53662e-15 -7.71421e-15 0
lhumerus -25.8485 -30.322 96.8552
lradius 30.7837 0 0
lwrist 13.1916 0 0
lhand -13.5957 -19.8882 0
lfingers 7.12502 0 0
lthumb 12.5191 9.71984 0
rclavicle -8.53662e-15 -7.71421e-15 0
rhumerus -46.3856 10.778 -83.9712
rradius 38.1546 0 0
rwrist -22.424 0 0
rhand -29.5394 -28.0927 0
rfingers 7.12502 0 0
rthumb -2.87256 -58.0509 0
335
root 9.5833 16.9727 10.7165 6.69163 9.44397 1.625
lfemur -2.22654 7.13645 -20.898
ltibia 47.242 0 0
lfoot -8.56406 7.35592 0
ltoes -1.11868 0 0
rfemur -37.8797 9.76165 15.3164
rtibia 35.3691 0 0
rfoot -23.477 -7.86107 0
rtoes -15.2739 0 0
lowerback -6.27278 -3.94435 -3.89722
upperback -1.28607 -4.96325 2.24041
thorax 2.67097 -2.54066 3.96035
lowerneck -19.5117 -5.55028 -13.1865
upperneck 20.8944 -7.16355 13.5934
head 10.9857 -2.77708 6.08593
lclavicle -6.83137e-15 -7.37542e-15 0
lhumerus -26.4974 -29.9934 97.0518
lradius 30.5515 0 0
lwrist 13.0005 0 0
lhand -13.6336 -19.902 0
lfingers 7.12502 0 0
lthumb 12.4826 9.7084 0
rclavicle -6.83137e-15 -7.37542e-15 0
rhumerus -46.1477 10.952 -84.0258
rradius 38.267 0 0
rwrist -22.4889 0 0
rhand -29.5783 -28.0743 0
rfingers 7.12502 0 0
rthumb -2.91016 -58.0321 0
336
root 9.56312 16.9812 10.8843 6.67347 9.41484 1.44569
lfemur -3.02211 7.20878 -20.5914
ltibia 48.4626 0 0
lfoot -8.41763 7.56001 0
ltoes -1.27676 0 0
rfemur -37.2279 9.47979 15.939
rtibia 35.3878 0 0
rfoot -23.0615 -7.38616 0
rtoes -15.0961 0 0
lowerback -6.24107 -3.85567 -3.75005
upperback -1.29212 -4.85903 2.26374
thorax 2.62992 -2.48586 3.91671
lowerneck -19.5301 -5.58138 -13.1981
upperneck 20.8721 -7.20891 13.6283
head 10.9903 -2.79401 6.09308
lclavicle -5.12815e-15 -7.01287e-15 0
lhumerus -27.1468 -29.661 97.2439
lradius 30.3222 0 0
lwrist 12.81 0 0
lhand -13.6686 -19.9182 0
lfingers 7.12502 0 0
lthumb 12.4489 9.69433 0
rclavicle -5.12815e-15 -7.01287e-15 0
rhumerus -45.9061 11.1242 -84.0803
rradius 38.3773 0 0
rwrist -22.5498 0 0
rhand -29.6164 -28.0534 0
rfingers 7.12502 0 0
rthumb -2.94696 -58.0108 0
337
root 9.54315 16.9896 11.0518 6.65584 9.38085 1.26551
lfemur -3.82056 7.27628 -20.2866
ltibia 49.6454 0 0
lfoot -8.27651 7.76042 0
ltoes -1.43699 0 0
rfemur -36.5613 9.20198 16.557
rtibia 35.3885 0 0
rfoot -22.6465 -6.91416 0
rtoes -14.9224 0 0
lowerback -6.2113 -3.76526 -3.60245
upperback -1.29744 -4.75263 2.28741
thorax 2.59082 -2.42999 3.8734
lowerneck -19.548 -5.61213 -13.2095
upperneck 20.8505 -7.25369 13.6622
head 10.9949 -2.8108 6.0999
lclavicle -3.42932e-15 -6.62784e-15 0
lhumerus -27.7959 -29.3254 97.4314
lradius 30.0958 0 0
lwrist 12.6203 0 0
lhand -13.7007 -19.9368 0
lfingers 7.12502 0 0
lthumb 12.4179 9.67775 0
rclavicle -3.42932e-15 -6.62784e-15 0
rhumerus -45.6613 11.2943 -84.1346
rradius 38.4854 0 0
rwrist -22.6067 0 0
rhand -29.6537 -28.03 0
rfingers 7.12502 0 0
rthumb -2.98294 -57.9869 0
